<?xml version="1.0" ?><!DOCTYPE svg  PUBLIC '-//W3C//DTD SVG 1.1//EN'  'http://www.w3.org/Graphics/SVG/1.1/DTD/svg11.dtd'><svg enable-background="new 0 0 64 64" height="64px" id="Layer_1" version="1.1" viewBox="0 0 64 64" width="64px" xml:space="preserve" xmlns="http://www.w3.org/2000/svg" xmlns:xlink="http://www.w3.org/1999/xlink"><g><path d="M23.564,14.456h16.857c0.553,0,1-0.447,1-1v-3.161h-4.429V7.73c0-1.104-0.896-2-2-2h-6c-1.104,0-2,0.896-2,2v2.565h-4.428   v3.161C22.564,14.009,23.011,14.456,23.564,14.456z"/><path d="M43.421,10.295v3.161c0,1.654-1.346,3-3,3H23.565c-1.654,0-3-1.346-3-3v-3.161h-8.572V54.27c0,2.209,1.791,4,4,4h32   c2.209,0,4-1.791,4-4V10.295H43.421z M46.992,53.27h-30V20.929h30V53.27z"/><rect height="4" width="19.117" x="22.42" y="26.038"/><rect height="4" width="19.117" x="22.514" y="34.133"/><rect height="4" width="7.752" x="22.608" y="42.229"/></g></svg>